<svg width="50" height="60" viewBox="0 0 50 60" fill="none" xmlns="http://www.w3.org/2000/svg">
<path d="M42.6781 42.2917L25 59.8101L7.32188 42.2917C3.8257 38.8269 1.44481 34.4126 0.480285 29.6069C-0.484241 24.8012 0.0109175 19.82 1.90315 15.2932C3.79537 10.7664 6.99969 6.89728 11.1109 4.17511C15.2221 1.45295 20.0555 0 25 0C29.9445 0 34.7779 1.45295 38.8891 4.17511C43.0003 6.89728 46.2046 10.7664 48.0969 15.2932C49.9891 19.82 50.4842 24.8012 49.5197 29.6069C48.5552 34.4126 46.1743 38.8269 42.6781 42.2917Z" fill="#024638"/>
<circle cx="25" cy="25" r="21.8354" fill="white"/>
<path fill-rule="evenodd" clip-rule="evenodd" d="M30.3822 13H34.9771V15.2974H30.3822V13ZM34.9798 17.5948H25.7874V19.8923H34.9798V17.5948ZM21.1925 22.1925H34.9798V24.4899H21.1925V22.1925ZM34.9798 26.7873H16.5949V29.0847H34.9798V26.7873ZM34.9798 31.3822H12V33.6796H34.9798V31.3822Z" fill="#024638"/>
</svg>
