<svg width="44" height="52" viewBox="0 0 44 52" fill="none" xmlns="http://www.w3.org/2000/svg">
<path d="M7.32873 36.4726L7.85751 35.9408L7.32874 36.4727L21.4712 50.5319C21.7638 50.8227 22.2362 50.8227 22.5288 50.5319L36.6713 36.4727L36.1425 35.9408L36.6713 36.4726C39.5734 33.5874 41.5503 29.9109 42.3512 25.9078C43.1521 21.9047 42.7409 17.7555 41.1698 13.9849C39.5987 10.2144 36.9385 6.99248 33.5263 4.72595C30.1141 2.45946 26.1029 1.25 22 1.25C17.8971 1.25 13.8859 2.45946 10.4737 4.72595C7.06151 6.99248 4.40131 10.2144 2.83021 13.9849C1.2591 17.7555 0.847899 21.9047 1.6488 25.9078C2.4497 29.9109 4.42657 33.5874 7.32873 36.4726Z" fill="#3E4095" stroke="white" stroke-width="1.5" stroke-linejoin="round"/>
<path d="M24.2592 22.6491C24.0505 23.1699 23.683 23.5358 23.1172 23.6555C22.4596 23.7947 21.8101 23.5767 21.422 22.9799C21.1305 22.5317 21.0298 22.0324 21.029 21.6809C21.03 21.0549 21.1139 20.6231 21.3212 20.217C21.6421 19.5883 22.2955 19.2529 22.9922 19.3589C23.6205 19.4545 24.0276 19.8269 24.2582 20.3945C24.5616 21.1414 24.5585 21.9013 24.2591 22.6491L24.2592 22.6491ZM20.0395 15.3574C19.7432 15.7773 19.2257 16.6691 19.2257 16.6691L19.5541 17.7039C19.5541 17.7039 19.4864 17.6185 19.1076 16.8913C17.4675 19.5879 17.8194 20.3872 18.1003 20.9627C18.1895 21.1452 18.1804 21.3493 18.1356 21.5179C17.9041 22.3901 17.6775 23.1083 17.8438 23.6384C17.8438 23.6384 18.2028 22.4254 18.5706 21.3381C19.5842 18.3422 20.7974 16.1132 21.0001 15.6612H21.0026C20.764 16.2625 19.0263 20.2804 18.8007 21.3331C19.6908 20.9277 20.2371 19.3884 20.2371 19.3884L19.5346 19.7265L20.3325 19.1775C20.8056 18.3147 21.5045 16.4296 21.7975 15.6612L21.7974 15.6612V15.0753V14.4893H22.3834V13.9033V13.3174H21.7974V13.9033H21.2115V14.4893H20.6255V15.0753H20.0395V15.3574V15.3574ZM22.3835 13.3173H22.9695V12.7313H22.3835V13.3173ZM23.7179 12.3424H23.3753V12H23.7179V12.3424ZM27.6727 21.6313C27.6727 20.8249 27.6719 20.0185 27.6742 19.2122C27.6743 19.1423 27.6577 19.117 27.5837 19.1194C27.4155 19.125 27.2471 19.1212 27.0787 19.1212H26.9083V23.9151C27.1353 23.9151 27.3523 23.9112 27.5692 23.9169C27.6503 23.919 27.6751 23.8986 27.6747 23.8142C27.6712 23.0865 27.6727 22.3589 27.6727 21.6313H27.6727ZM15.9467 19.198C15.9261 19.1426 15.9 19.118 15.8362 19.1194C15.6243 19.1241 15.4123 19.121 15.2004 19.1214C15.1752 19.1216 15.1498 19.1248 15.1179 19.1271C15.1306 19.1642 15.1392 19.1924 15.1496 19.2199C15.4832 20.1085 15.8167 20.9972 16.1504 21.8858C16.3955 22.5382 16.6413 23.1904 16.8848 23.8434C16.905 23.8973 16.932 23.9193 16.9909 23.9163C17.0913 23.9114 17.192 23.915 17.2925 23.915H17.6958C17.6513 23.7936 16.4178 20.4696 15.9467 19.198H15.9467ZM10.8552 22.8154C11.2226 21.8519 11.5848 20.9017 11.9472 19.9516C11.9555 19.9519 11.9638 19.9523 11.9722 19.9526C12.3254 20.9027 12.6788 21.853 13.0367 22.8154H10.8552V22.8154ZM14.215 22.824C14.1119 22.8261 14.0086 22.8226 13.9054 22.8253C13.8538 22.8267 13.8257 22.8085 13.8105 22.7583C13.7907 22.6935 13.7638 22.631 13.7399 22.5675C13.3162 21.438 12.8924 20.3086 12.4693 19.1788C12.4537 19.1368 12.432 19.119 12.3863 19.1204C12.2858 19.1232 12.1852 19.1212 12.0847 19.1212H11.6664C11.7115 19.2479 11.7567 19.3608 11.7908 19.4769C11.8041 19.5219 11.8073 19.5802 11.7903 19.6226C11.2734 20.902 10.7535 22.1803 10.2341 23.459C10.1741 23.6063 10.1147 23.7537 10.0495 23.915C10.1668 23.915 10.2691 23.9124 10.3711 23.9161C10.423 23.9178 10.4479 23.8999 10.4661 23.8507C10.551 23.622 10.6417 23.3953 10.7262 23.1665C10.7466 23.1113 10.7756 23.092 10.8335 23.0921C11.575 23.0937 12.3163 23.0935 13.0577 23.0921C13.1153 23.092 13.1445 23.1103 13.1646 23.1662C13.2454 23.3907 13.3343 23.6121 13.4139 23.837C13.4363 23.9007 13.4683 23.9177 13.5322 23.9166C13.7385 23.9124 13.945 23.915 14.1514 23.915H14.2459C14.1433 23.6382 14.0456 23.374 13.9416 23.0931H14.0832C14.2892 23.093 14.2877 23.093 14.2813 22.8905C14.2798 22.8415 14.2641 22.8229 14.215 22.824L14.215 22.824ZM8.09231 19.1262C8.10571 20.4802 8.1191 21.8308 8.13255 23.1817C8.12506 23.1837 8.11786 23.1858 8.11039 23.1881C8.09471 23.1668 8.07808 23.1463 8.06295 23.1244C7.1546 21.812 6.24606 20.4996 5.33923 19.1859C5.30567 19.1372 5.27136 19.1193 5.21352 19.12C4.96363 19.1229 4.71362 19.1211 4.46371 19.1214C4.43832 19.1215 4.41291 19.1245 4.37256 19.1272C4.44511 19.233 4.51411 19.3234 4.57082 19.421C4.60029 19.4717 4.62357 19.5351 4.62345 19.5926C4.62033 20.9944 4.61369 22.3961 4.60777 23.798C4.60766 23.8196 4.60157 23.8439 4.60934 23.8625C4.61765 23.8826 4.63824 23.9118 4.65432 23.9123C4.76483 23.9168 4.87559 23.9146 4.99817 23.9146C4.98041 22.5857 4.96294 21.2661 4.94529 19.9462C4.98153 19.9633 4.99974 19.9858 5.01597 20.0094C5.90063 21.2889 6.78559 22.5683 7.66874 23.8487C7.70173 23.8968 7.73488 23.9176 7.7936 23.9164C7.97279 23.9126 8.15212 23.915 8.33147 23.915C8.45098 23.915 8.45153 23.915 8.45238 23.7982C8.46281 22.2715 8.47326 20.7448 8.48357 19.218C8.48385 19.1891 8.48357 19.16 8.48357 19.1262H8.09229H8.09231ZM23.7889 19.2669C23.2941 19.063 22.7799 19.0214 22.2543 19.1111C21.8261 19.1844 21.4366 19.3505 21.1027 19.6298C20.515 20.1211 20.25 20.7638 20.2372 21.6077C20.2513 21.7125 20.2643 21.9058 20.3049 22.0934C20.4231 22.6377 20.6972 23.0941 21.1404 23.4329C21.8642 23.9862 22.6831 24.1016 23.5402 23.8531C24.3936 23.6058 24.9481 23.0312 25.1804 22.1667C25.3297 21.6114 25.2907 21.0611 25.0692 20.5313C24.8199 19.9344 24.3866 19.5133 23.7889 19.2669H23.7889Z" fill="#FFCC29"/>
<path d="M34.9331 23.9316H34.3472V23.3457H34.9331V23.9316Z" fill="#FFCC29"/>
<path d="M38.953 22.7677C38.7957 23.1152 38.569 23.4016 38.2202 23.5756C37.6443 23.8626 36.9447 23.7187 36.5242 23.2285C36.2854 22.9501 36.1458 22.6232 36.0727 22.2688C35.9557 21.7024 35.9615 21.1368 36.1243 20.579C36.2434 20.1717 36.4447 19.8134 36.8035 19.5673C37.4426 19.1292 38.3054 19.2957 38.761 19.9411C39.0092 20.2928 39.125 20.6917 39.1698 21.1142C39.1842 21.2499 39.1892 21.3866 39.1939 21.4561C39.1899 21.9528 39.1319 22.3723 38.953 22.7677V22.7677ZM39.8249 20.5528C39.6056 19.9521 39.2135 19.5063 38.6219 19.2528C38.0598 19.0121 37.477 18.9851 36.8895 19.1414C36.1909 19.327 35.6886 19.7577 35.4163 20.4255C35.1057 21.1863 35.1162 21.9564 35.4561 22.7079C35.6988 23.2442 36.1063 23.6188 36.6576 23.8297C37.157 24.0209 37.6709 24.0452 38.1895 23.9317C38.8171 23.7945 39.3043 23.4523 39.6339 22.897C39.8848 22.4746 39.9852 22.0121 39.9844 21.4617C39.9878 21.1914 39.9392 20.866 39.8249 20.5528V20.5528Z" fill="#FFCC29"/>
<path d="M30.0744 22.9618C30.135 23.0154 30.2013 23.072 30.2653 23.131C30.6106 23.4488 31.0096 23.6571 31.4785 23.7152C31.7263 23.746 31.9713 23.7247 32.2029 23.6218C32.5269 23.4778 32.7264 23.2258 32.8114 22.8865C32.8866 22.5863 32.8812 22.2846 32.7692 21.9928C32.6245 21.6161 32.33 21.4083 31.9565 21.2959C31.7407 21.2309 31.5183 21.2091 31.2942 21.2003C31.272 21.1994 31.2496 21.2001 31.2222 21.2001V20.8656C31.3277 20.8588 31.4328 20.8545 31.5375 20.8449C31.7457 20.8258 31.9475 20.7827 32.1375 20.6901C32.6391 20.4454 32.6314 19.7845 32.3459 19.522C32.1694 19.3597 31.9546 19.3156 31.7245 19.3187C31.3438 19.3237 31.0464 19.5013 30.7966 19.7728C30.7143 19.8622 30.6398 19.9587 30.5557 20.0591C30.4512 19.8889 30.3479 19.7209 30.2385 19.5428C30.3294 19.4854 30.4147 19.4273 30.5039 19.3758C31.0616 19.0534 31.6613 18.9896 32.2871 19.0894C32.5283 19.1279 32.7571 19.1997 32.9633 19.3347C33.4974 19.6844 33.417 20.4496 32.9366 20.7631C32.7393 20.8918 32.522 20.9616 32.2912 20.9926C32.1707 21.0088 32.0492 21.0166 31.9273 21.0336C32.0358 21.0431 32.1448 21.049 32.2528 21.0626C32.6627 21.1143 33.0358 21.2493 33.3211 21.564C33.5894 21.8597 33.685 22.2154 33.648 22.606C33.5957 23.1578 33.2714 23.5156 32.7943 23.7509C32.3505 23.9698 31.8771 24.0282 31.388 23.9837C30.9412 23.943 30.5205 23.8153 30.1224 23.6099C30.0855 23.5908 30.0712 23.5689 30.0718 23.5266C30.0743 23.348 30.0728 23.1694 30.0729 22.9907C30.073 22.9758 30.0744 22.9609 30.0744 22.9618V22.9618Z" fill="#FFCC29"/>
</svg>
